<svg xmlns="http://www.w3.org/2000/svg" viewBox="0 0 32 32">
  <circle cx="16" cy="16" r="16" fill="#8247E5"/>
  <path d="M21.092 12.693c-.369-.215-.848-.215-1.254 0l-2.879 1.654-1.955 1.078-2.879 1.654c-.369.215-.848.215-1.254 0l-2.288-1.308c-.369-.215-.627-.61-.627-1.041V12.19c0-.431.221-.826.627-1.041l2.25-1.308c.369-.215.848-.215 1.254 0l2.25 1.308c.369.215.627.61.627 1.041v1.654l1.955-1.115v-1.654c0-.431-.221-.826-.627-1.041l-4.168-2.385c-.369-.215-.848-.215-1.254 0l-4.205 2.423c-.406.215-.627.61-.627 1.041v4.808c0 .431.221.826.627 1.041l4.205 2.423c.369.215.848.215 1.254 0l2.879-1.654 1.955-1.115 2.879-1.654c.369-.215.848-.215 1.254 0l2.25 1.308c.369.215.627.61.627 1.041v2.538c0 .431-.221.826-.627 1.041l-2.25 1.308c-.369.215-.848.215-1.254 0l-2.25-1.308c-.369-.215-.627-.61-.627-1.041v-1.654l-1.955 1.115v1.654c0 .431.221.826.627 1.041l4.205 2.423c.369.215.848.215 1.254 0l4.205-2.423c.406-.215.627-.61.627-1.041v-4.846c0-.431-.221-.826-.627-1.041l-4.168-2.385z" fill="#FFF"/>
</svg>
