<svg xmlns="http://www.w3.org/2000/svg" viewBox="0 0 32 32">
  <circle cx="16" cy="16" r="16" fill="#E84142"/>
  <path d="M18.665 12.556c.293-.508.768-.508 1.061 0l4.713 8.157c.293.508.053.927-.53.927h-1.885c-.585 0-1.17-.419-1.463-.927l-2.83-4.895c-.293-.508-.768-.508-1.061 0l-2.83 4.895c-.293.508-.878.927-1.463.927H10.09c-.585 0-.823-.419-.53-.927l4.713-8.157c.293-.508.768-.508 1.061 0l.531.919 2.8-4.849c.293-.508.768-.508 1.061 0l4.713 8.157c.293.508.053.927-.53.927h-1.885c-.585 0-1.17-.419-1.463-.927l-1.896-3.277z" fill="#FFF"/>
</svg>
