<svg xmlns="http://www.w3.org/2000/svg" viewBox="0 0 32 32">
  <circle cx="16" cy="16" r="16" fill="#FF007A"/>
  <path d="M14.5 10.5c0-.828.672-1.5 1.5-1.5s1.5.672 1.5 1.5-.672 1.5-1.5 1.5-1.5-.672-1.5-1.5z" fill="#FFF"/>
  <path d="M11.071 14.857c.857-1.071 2.357-1.643 3.929-1.5v-1.5c-2.071-.214-4.071.5-5.357 2-1.143 1.357-1.643 3.143-1.357 4.929l1.429-.357c-.215-1.5.214-2.929 1.357-3.929v.357z" fill="#FFF"/>
  <path d="M19.929 14.857c-.857-1.071-2.357-1.643-3.929-1.5v-1.5c2.071-.214 4.071.5 5.357 2 1.143 1.357 1.643 3.143 1.357 4.929l-1.429-.357c.215-1.5-.214-2.929-1.357-3.929v.357z" fill="#FFF"/>
  <path d="M16 15c-2.071 0-3.786 1.5-4.143 3.5l1.5.357c.286-1.357 1.5-2.357 2.929-2.357s2.643 1 2.929 2.357l1.5-.357C19.786 16.5 18.071 15 16 15z" fill="#FFF"/>
  <path d="M16 19.5c-.828 0-1.5.672-1.5 1.5s.672 1.5 1.5 1.5 1.5-.672 1.5-1.5-.672-1.5-1.5-1.5z" fill="#FFF"/>
</svg>
